<?xml version="1.0" encoding="UTF-8"?>
<svg width="242" height="120" viewBox="0 0 100 106" xmlns="http://www.w3.org/2000/svg">
<circle cx="2" cy="104" r="2" fill="#35353C"/>
<circle cx="36" cy="104" r="2" fill="#35353C"/>
<circle cx="70" cy="104" r="2" fill="#35353C"/>
<circle cx="104" cy="104" r="2" fill="#35353C"/>
<circle cx="138" cy="104" r="2" fill="#35353C"/>
<circle cx="172" cy="104" r="2" fill="#35353C"/>
<circle cx="206" cy="104" r="2" fill="#35353C"/>
<circle cx="240" cy="104" r="2" fill="#35353C"/>
<circle cx="2" cy="70" r="2" fill="#35353C"/>
<circle cx="36" cy="70" r="2" fill="#35353C"/>
<circle cx="70" cy="70" r="2" fill="#35353C"/>
<circle cx="104" cy="70" r="2" fill="#35353C"/>
<circle cx="138" cy="70" r="2" fill="#35353C"/>
<circle cx="172" cy="70" r="2" fill="#35353C"/>
<circle cx="206" cy="70" r="2" fill="#35353C"/>
<circle cx="240" cy="70" r="2" fill="#35353C"/>
<circle cx="2" cy="36" r="2" fill="#35353C"/>
<circle cx="36" cy="36" r="2" fill="#35353C"/>
<circle cx="70" cy="36" r="2" fill="#35353C"/>
<circle cx="104" cy="36" r="2" fill="#35353C"/>
<circle cx="138" cy="36" r="2" fill="#35353C"/>
<circle cx="172" cy="36" r="2" fill="#35353C"/>
<circle cx="206" cy="36" r="2" fill="#35353C"/>
<circle cx="240" cy="36" r="2" fill="#35353C"/>
<circle cx="2" cy="2" r="2" fill="#35353C"/>
<circle cx="36" cy="2" r="2" fill="#35353C"/>
<circle cx="70" cy="2" r="2" fill="#35353C"/>
<circle cx="104" cy="2" r="2" fill="#35353C"/>
<circle cx="138" cy="2" r="2" fill="#35353C"/>
<circle cx="172" cy="2" r="2" fill="#35353C"/>
<circle cx="206" cy="2" r="2" fill="#35353C"/>
<circle cx="240" cy="2" r="2" fill="#35353C"/>
<circle cx="2" cy="2" r="2" fill="#35353C"/>
<circle cx="36" cy="2" r="2" fill="#35353C"/>
<circle cx="70" cy="2" r="2" fill="#35353C"/>
<circle cx="104" cy="2" r="2" fill="#35353C"/>
<circle cx="138" cy="2" r="2" fill="#35353C"/>
<circle cx="172" cy="2" r="2" fill="#35353C"/>
<circle cx="206" cy="2" r="2" fill="#35353C"/>
<circle cx="240" cy="2" r="2" fill="#35353C"/>
<circle cx="2" cy="2" r="2" fill="#35353C"/>
<circle cx="36" cy="2" r="2" fill="#35353C"/>
<circle cx="70" cy="2" r="2" fill="#35353C"/>
<circle cx="104" cy="2" r="2" fill="#35353C"/>
<circle cx="138" cy="2" r="2" fill="#35353C"/>
<circle cx="172" cy="2" r="2" fill="#35353C"/>
<circle cx="206" cy="2" r="2" fill="#35353C"/>
<circle cx="240" cy="2" r="2" fill="#35353C"/>
</svg>
